<?xml version="1.0" standalone="no"?>
<!DOCTYPE svg PUBLIC "-//W3C//DTD SVG 20010904//EN"
 "http://www.w3.org/TR/2001/REC-SVG-20010904/DTD/svg10.dtd">
<svg version="1.0" xmlns="http://www.w3.org/2000/svg"
 width="617.000000pt" height="617.000000pt" viewBox="0 0 617.000000 617.000000"
 preserveAspectRatio="xMidYMid meet">
<metadata>
Created by potrace 1.11, written by Peter Selinger 2001-2013
</metadata>
<g transform="translate(0.000000,617.000000) scale(0.100000,-0.100000)"
fill="#000000" stroke="none">
<path d="M2805 6149 c-608 -57 -1173 -285 -1650 -665 -137 -109 -365 -337
-470 -469 -252 -315 -460 -717 -565 -1091 -77 -274 -112 -535 -112 -839 0
-371 49 -669 166 -1010 214 -627 655 -1194 1209 -1558 425 -280 895 -447 1396
-497 155 -15 495 -12 651 6 1361 156 2458 1192 2684 2534 147 873 -76 1749
-624 2440 -98 124 -359 388 -480 484 -155 124 -378 264 -565 356 -326 160
-605 246 -965 295 -139 19 -535 27 -675 14z m-412 -1389 c80 -25 174 -86 229
-150 l41 -48 58 63 c97 103 219 155 365 155 145 0 282 -61 373 -167 l43 -49
66 67 c104 104 213 149 358 149 101 0 188 -25 270 -78 224 -145 297 -428 172
-665 -40 -75 -149 -177 -227 -214 l-61 -28 0 -827 0 -828 -205 0 -205 0 0 470
0 470 -95 0 -95 0 0 -470 0 -470 -155 0 -155 0 0 625 0 625 -90 0 -90 0 0
-625 0 -625 -155 0 -155 0 0 470 0 470 -90 0 -90 0 0 -470 0 -470 -215 0 -215
0 0 829 0 830 -62 33 c-245 129 -338 431 -211 683 34 65 130 165 195 200 124
67 274 84 401 45z m1687 -2995 l0 -195 -1005 0 -1005 0 0 195 0 195 1005 0
1005 0 0 -195z"/>
</g>
</svg>
